<svg xmlns="http://www.w3.org/2000/svg" viewBox="0 0 1920 1080">
    <defs>
        <style>
            .a{fill:#343a40;}.b{fill:#c331b4;}.c{opacity:0.75;}
        </style>
    </defs>
    <title>
        CODE-CRAFT-V2-01
    </title>
    <rect width="1930" height="1092" x="-3" y="-6" class="a"/>
    <path d="M840.31,538.68c0-19.12-9.32-31.12-27.62-31.12-16.32,0-27.63,11.65-27.63,28.32v28.21c0,16.78,11.31,28.44,27.63,28.44,18.65,0,27.62-11.07,27.62-32H824.23v1c0,12-4.08,15.61-11.54,15.61-5.6,0-11.43-2.91-11.43-12.58V535.41c0-9.44,5.83-12.47,11.43-12.47s11.54,2.45,11.54,14.57v1.17Z" class="b"/>
    <path d="M882.5,507.56c-16.32,0-27.62,11.77-27.62,28.55v28c0,16.67,11.3,28.32,27.62,28.32s27.63-11.65,27.63-28.32v-28C910.13,519.33,898.7,507.56,882.5,507.56ZM894,564.67C894,574.11,888,577,882.5,577c-6.06,0-11.42-3.27-11.42-12.47V535.41c0-9.44,5.71-12.47,11.42-12.47,6.06,0,11.54,3.38,11.54,12.59Z" class="b"/>
    <path d="M955.46,509.07h-27v82.18h27c16.32,0,27.63-10.61,27.63-30.42V539.14C983.09,519.1,971.78,509.07,955.46,509.07Zm11.66,47.79c0,16.09-5.83,19.12-13.52,19.12h-9.1V524.46h9.1c11.19,0,13.52,7.57,13.52,16.43Z" class="b"/>
    <polygon points="1001.96 591.25 1048.12 591.25 1048.12 575.86 1018.05 575.86 1018.05 557.21 1040.31 557.21 1040.31 543.23 1018.05 543.23 1018.05 524.58 1048.12 524.58 1048.12 509.07 1001.96 509.07 1001.96 591.25" class="b"/>
    <g class="c">
        <path d="M1117.59,538.68c0-19.12-9.33-31.12-27.63-31.12-16.32,0-27.63,11.65-27.63,28.32v28.21c0,16.78,11.31,28.44,27.63,28.44,18.65,0,27.63-11.07,27.63-32H1101.5v1c0,12-4.08,15.61-11.54,15.61-5.59,0-11.42-2.91-11.42-12.58V535.41c0-9.44,5.83-12.47,11.42-12.47s11.54,2.45,11.54,14.57v1.17Z" class="b"/>
        <path d="M1161.17,509.07h-26.11v82.18h16.09V570h8.39l11.07,21.22h17.61l-13.88-25c8.86-4,14.34-12.47,14.34-25.17V538.8C1188.68,519.68,1177.61,509.07,1161.17,509.07Zm11.54,31.82c0,10.84-6.53,13.87-13.52,13.87h-8v-30.3h8c7.23,0,13.52,2.8,13.52,14.1Z" class="b"/>
        <path d="M1224.34,509.07l-24.13,82.18h16.32l4.55-16.2H1245l4.32,16.2h16.43l-23.78-82.18Zm.12,52.1L1233.2,529l8.39,32.17Z" class="b"/>
        <polygon points="1279.47 591.01 1295.55 591.01 1295.55 557.21 1316.18 557.21 1316.18 543.23 1295.55 543.23 1295.55 524.58 1323.76 524.58 1323.76 509.07 1279.47 509.07 1279.47 591.01" class="b"/>
        <polygon points="1335.64 509.07 1335.64 524.58 1352.78 524.58 1352.78 591.25 1368.87 591.25 1368.87 524.58 1386 524.58 1386 509.07 1335.64 509.07" class="b"/>
    </g>
    <path d="M537,527.2v52.39c0,24,7.8,34.52,33.32,34.52V596.4c-11.56,0-13.51-3.61-13.51-12.76V523.15c0-9,2.25-12.76,13.51-12.76V492.68C544.8,492.68,537,503.19,537,527.2Z" class="b"/>
    <rect width="69.2" height="15.46" x="583.35" y="616.21" class="b"/>
    <polygon points="629.04 444.2 607.58 444.2 593.92 493.89 609.08 493.89 629.04 444.2" class="b"/>
    <polygon points="625.29 493.89 640.45 493.89 660.41 444.2 638.95 444.2 625.29 493.89" class="b"/>
    <path d="M695.71,511.45c-3.44-12.93-12.61-18.77-31.63-18.77v17.71c11.25,0,13.51,3.75,13.51,12.76v60.49c0,9.15-2,12.76-13.51,12.76v17.71c22.72,0,31.39-8.34,33-27.12,24.11-.49,31.56-11,31.56-34.5V546C728.66,522.07,720.93,511.55,695.71,511.45Zm13.14,45.09c0,8.58-1.71,12.29-11.45,12.72V529.2c9.48.46,11.45,4.28,11.45,12.71Z" class="b"/>
</svg>
